<?xml version="1.0" standalone="no"?>
<!DOCTYPE svg PUBLIC "-//W3C//DTD SVG 20010904//EN"
 "http://www.w3.org/TR/2001/REC-SVG-20010904/DTD/svg10.dtd">
<svg version="1.0" xmlns="http://www.w3.org/2000/svg"
 width="660.000000pt" height="660.000000pt" viewBox="0 0 660.000000 660.000000"
 preserveAspectRatio="xMidYMid meet">

<g transform="translate(0.000000,660.000000) scale(0.100000,-0.100000)"
fill="#000000" stroke="none">
<path d="M3095 6594 c-310 -30 -412 -47 -632 -104 -566 -147 -1068 -435 -1489
-855 -536 -535 -846 -1168 -950 -1940 -22 -160 -25 -597 -6 -750 99 -783 412
-1435 947 -1971 535 -536 1168 -846 1940 -950 160 -22 597 -25 750 -6 783 99
1435 412 1971 947 536 535 846 1168 950 1940 22 160 25 597 6 750 -99 783
-412 1435 -947 1971 -534 535 -1169 847 -1935 949 -109 15 -519 28 -605 19z
m-1745 -2842 l0 -228 68 67 c93 91 151 113 292 114 99 0 109 -2 173 -33 122
-60 220 -182 263 -327 26 -85 26 -279 0 -355 -68 -202 -212 -334 -395 -363
-144 -22 -282 21 -376 118 l-54 55 -3 -77 -3 -78 -117 -3 -118 -3 0 671 0 670
135 0 135 0 0 -228z m2130 -1 l0 -230 55 58 c94 99 194 137 335 129 280 -16
479 -331 419 -664 -25 -142 -137 -303 -254 -366 -158 -84 -348 -74 -485 27
-28 21 -62 54 -75 73 l-25 37 0 -88 0 -87 -120 0 -120 0 0 670 0 670 135 0
135 0 0 -229z m1732 87 l3 -143 113 -3 113 -3 -2 -97 -2 -97 -111 -5 -111 -5
-3 -265 c-2 -236 0 -269 15 -300 25 -49 72 -60 161 -37 36 10 69 14 72 10 9
-10 50 -163 50 -186 0 -12 -27 -25 -97 -48 -167 -54 -316 -41 -392 33 -67 65
-66 58 -71 443 l-5 350 -82 3 -83 3 0 99 0 100 85 0 85 0 0 145 0 145 130 0
129 0 3 -142z m-2454 -38 c111 -18 171 -47 239 -115 48 -48 65 -73 77 -115 38
-126 9 -240 -84 -330 -54 -52 -117 -93 -295 -191 -79 -44 -185 -134 -185 -157
0 -10 69 -12 298 -12 l297 1 3 -120 3 -121 -485 0 -484 0 5 63 c14 181 76 298
206 391 34 24 127 79 207 122 79 44 164 97 187 120 40 38 43 44 43 94 0 49 -3
56 -40 91 -46 44 -85 54 -171 46 -74 -6 -130 -33 -200 -96 l-55 -49 -83 96
-82 95 28 28 c69 68 230 139 358 158 85 12 141 12 213 1z m1912 -635 l0 -525
-135 0 -135 0 0 525 0 525 135 0 135 0 0 -525z"/>
<path d="M1524 3461 c-53 -24 -111 -76 -146 -130 -27 -44 -28 -49 -28 -178 0
-154 5 -169 76 -232 141 -124 350 -76 437 99 18 37 22 62 22 145 0 93 -3 104
-32 161 -52 100 -133 154 -233 154 -32 0 -72 -8 -96 -19z"/>
<path d="M3669 3466 c-64 -23 -127 -77 -168 -146 -19 -31 -21 -51 -21 -172 l0
-136 33 -43 c120 -158 338 -155 451 4 45 64 60 121 54 214 -7 124 -65 220
-160 267 -58 29 -129 34 -189 12z"/>
</g>
</svg>
